<svg width="256" height="256" viewBox="0 0 256 256" xmlns="http://www.w3.org/2000/svg" preserveAspectRatio="xMidYMid">
    <path d="M128 0C57.312 0 0 57.312 0 128s57.312 128 128 128 128-57.312 128-128S198.688 0 128 0zm0 240C66.4 240 16 189.6 16 128S66.4 16 128 16s112 50.4 112 112-50.4 112-112 112z" fill="#4D4D4D"/>
    <path d="M128 32c-52.8 0-96 43.2-96 96s43.2 96 96 96 96-43.2 96-96-43.2-96-96-96zm0 176c-44.188 0-80-35.812-80-80s35.812-80 80-80 80 35.812 80 80-35.812 80-80 80z" fill="#FFF"/>
    <path d="M160 96h-32v64h32V96z" fill="#4D4D4D"/>
    <path d="M96 96H64v64h32V96z" fill="#4D4D4D"/>
</svg>
